<svg width="29" height="29" viewBox="0 0 29 29" fill="none" xmlns="http://www.w3.org/2000/svg">
<path d="M24.1667 14.4999C24.1667 10.1093 24.1667 7.91393 22.8824 6.4876C22.7656 6.35787 22.6421 6.23434 22.5124 6.11753C21.086 4.83325 18.8907 4.83325 14.5 4.83325V4.83325C10.1094 4.83325 7.91405 4.83325 6.48772 6.11753C6.35799 6.23434 6.23446 6.35787 6.11765 6.4876C4.83337 7.91393 4.83337 10.1093 4.83337 14.4999V14.4999C4.83337 18.8906 4.83337 21.0859 6.11765 22.5122C6.23446 22.642 6.35799 22.7655 6.48772 22.8823C7.91405 24.1666 10.1094 24.1666 14.5 24.1666V24.1666C18.8907 24.1666 21.086 24.1666 22.5124 22.8823C22.6421 22.7655 22.7656 22.642 22.8824 22.5122C24.1667 21.0859 24.1667 18.8906 24.1667 14.4999V14.4999Z" stroke="#222222"/>
<path d="M10.875 14.5L18.125 14.5" stroke="#222222" stroke-linecap="round" stroke-linejoin="round"/>
<path d="M14.5 10.875L14.5 18.125" stroke="#222222" stroke-linecap="round" stroke-linejoin="round"/>
</svg>
