<svg width="21" height="20" viewBox="0 0 21 20" fill="none" xmlns="http://www.w3.org/2000/svg">
<path d="M8.87582 5.52303C9.5641 3.88886 9.90823 3.07178 10.5 3.07178C11.0918 3.07178 11.4359 3.88886 12.1242 5.52303L12.1563 5.59912C12.5451 6.52235 12.7395 6.98396 13.1358 7.26453C13.532 7.5451 14.0522 7.58947 15.0925 7.6782L15.2805 7.69424C16.9831 7.83946 17.8344 7.91207 18.0166 8.42789C18.1987 8.94371 17.5665 9.4915 16.3021 10.5871L15.8801 10.9527C15.2401 11.5073 14.92 11.7846 14.7709 12.1481C14.743 12.2158 14.7199 12.2853 14.7016 12.356C14.6036 12.7349 14.6973 13.1371 14.8847 13.9417L14.9431 14.1921C15.2875 15.6707 15.4598 16.4101 15.159 16.7289C15.0467 16.8481 14.9006 16.9339 14.7384 16.9761C14.3042 17.0889 13.6878 16.6105 12.4549 15.6538C11.6454 15.0255 11.2407 14.7114 10.7759 14.6408C10.5932 14.613 10.4069 14.613 10.2241 14.6408C9.75938 14.7114 9.35462 15.0255 8.54509 15.6538C7.31226 16.6105 6.69584 17.0889 6.26167 16.9761C6.09942 16.9339 5.95338 16.8481 5.84101 16.7289C5.54029 16.4101 5.71252 15.6707 6.05699 14.1921L6.11533 13.9417C6.30276 13.1371 6.39648 12.7349 6.29843 12.356C6.28014 12.2853 6.25701 12.2158 6.22918 12.1481C6.08002 11.7846 5.75998 11.5073 5.11991 10.9527L4.69792 10.5871C3.43351 9.4915 2.8013 8.94371 2.98345 8.42789C3.16561 7.91207 4.0169 7.83946 5.71949 7.69424L5.90756 7.6782C6.94786 7.58947 7.46801 7.5451 7.86426 7.26453C8.2605 6.98396 8.45492 6.52235 8.84377 5.59912L8.87582 5.52303Z" stroke="#222222"/>
</svg>
